HIERARCHY
ROOT Hips
{
    OFFSET 0.000000 0.000000 0.000000
    CHANNELS 6 Xposition Yposition Zposition Zrotation Xrotation Yrotation
    JOINT Spine
    {
        OFFSET -0.000000 8.312343 0.000000
        CHANNELS 3 Zrotation Xrotation Yrotation
        JOINT Spine1
        {
            OFFSET -0.000000 28.293047 0.000000
            CHANNELS 3 Zrotation Xrotation Yrotation
            JOINT Neck
            {
                OFFSET -0.000000 28.176853 2.561532
                CHANNELS 3 Zrotation Xrotation Yrotation
                JOINT Head
                {
                    OFFSET -0.000000 14.191803 -2.027400
                    CHANNELS 3 Zrotation Xrotation Yrotation
                    End Site
                    {
                        OFFSET -0.000000 25.342506 0.000000
                    }
                }
            }
            JOINT LeftShoulder
            {
                OFFSET 4.015815 26.370180 -0.268885
                CHANNELS 3 Zrotation Xrotation Yrotation
                JOINT LeftArm
                {
                    OFFSET 11.299099 0.000000 0.000000
                    CHANNELS 3 Zrotation Xrotation Yrotation
                    JOINT LeftForeArm
                    {
                        OFFSET 30.537071 0.000000 0.000000
                        CHANNELS 3 Zrotation Xrotation Yrotation
                        JOINT LeftHand
                        {
                            OFFSET 29.851767 0.000000 0.000000
                            CHANNELS 3 Zrotation Xrotation Yrotation
                            End Site
                            {
                                OFFSET 15.205504 0.000000 0.000000
                            }
                        }
                    }
                }
            }
            JOINT RightShoulder
            {
                OFFSET -4.091585 26.370180 -0.268885
                CHANNELS 3 Zrotation Xrotation Yrotation
                JOINT RightArm
                {
                    OFFSET -11.299099 0.000000 0.000000
                    CHANNELS 3 Zrotation Xrotation Yrotation
                    JOINT RightForeArm
                    {
                        OFFSET -30.537071 0.000000 0.000000
                        CHANNELS 3 Zrotation Xrotation Yrotation
                        JOINT RightHand
                        {
                            OFFSET -29.851767 0.000000 0.000000
                            CHANNELS 3 Zrotation Xrotation Yrotation
                            End Site
                            {
                                OFFSET -15.205504 0.000000 0.000000
                            }
                        }
                    }
                }
            }
        }
    }
    JOINT LeftUpLeg
    {
        OFFSET 10.137003 0.000000 0.000000
        CHANNELS 3 Zrotation Xrotation Yrotation
        JOINT LeftLeg
        {
            OFFSET -0.000000 -31.675148 0.000000
            CHANNELS 3 Zrotation Xrotation Yrotation
            JOINT LeftFoot
            {
                OFFSET -0.000000 -48.008553 0.000000
                CHANNELS 3 Zrotation Xrotation Yrotation
                JOINT LeftToeBase
                {
                    OFFSET -0.000000 -6.589051 15.205504
                    CHANNELS 3 Zrotation Xrotation Yrotation
                    End Site
                    {
                        OFFSET -0.000000 0.000000 4.054801
                    }
                }
            }
        }
    }
    JOINT RightUpLeg
    {
        OFFSET -10.137003 0.000000 0.000000
        CHANNELS 3 Zrotation Xrotation Yrotation
        JOINT RightLeg
        {
            OFFSET -0.000000 -31.675148 0.000000
            CHANNELS 3 Zrotation Xrotation Yrotation
            JOINT RightFoot
            {
                OFFSET -0.000000 -48.008553 0.000000
                CHANNELS 3 Zrotation Xrotation Yrotation
                JOINT RightToeBase
                {
                    OFFSET -0.000000 -6.589051 15.205504
                    CHANNELS 3 Zrotation Xrotation Yrotation
                    End Site
                    {
                        OFFSET -0.000000 0.000000 4.054801
                    }
                }
            }
        }
    }
}
MOTION
Frames:    10
Frame Time:    0.008333
94.932648    87.912666    -7.092037    -6.168262    -1.183056    83.515526    3.105610    -13.418255    0.180898    -0.358805    2.638444    -0.176625    -2.328839    21.613165    -6.596980    6.398775    0.396237    -6.098588    12.327079    1.262376    -2.737916    -5.255186    1.690588    3.294578    1.554022    -1.631217    -0.574788    25.768425    -0.009508    7.047390    -13.221778    -0.025862    4.894626    13.024173    -0.223379    13.339161    -2.457118    -0.952693    1.454079    -18.735310    -1.908963    5.981448    8.112938    -0.426151    1.052470    -3.413210    -3.823712    12.355225    -5.954876    4.905224    19.866285    0.000000    0.000000    0.000000    -0.971093    -0.103015    1.558966    2.648539    -2.199804    -3.665587    6.060771    0.880733    -9.930270    0.000000    0.000000    0.000000    
94.898422    87.914658    -7.104813    -6.195000    -1.192796    83.543549    3.109346    -13.422976    0.164972    -0.349571    2.615150    -0.193153    -2.361202    21.640163    -6.595906    6.429359    0.361917    -6.093604    12.289516    1.252490    -2.745701    -5.212098    1.660598    3.291251    1.583322    -1.587351    -0.619485    25.714127    0.081974    7.267110    -13.220906    0.063854    4.763986    13.025738    -0.352562    13.561431    -2.424184    -0.817404    1.394004    -18.852770    -1.777983    5.959359    8.115076    -0.431552    1.057708    -3.407347    -3.909468    12.371422    -5.949474    4.962434    19.820784    0.000000    0.000000    0.000000    -0.962698    -0.138072    1.519613    2.641812    -2.215787    -3.660580    6.095807    0.905829    -9.923952    0.000000    0.000000    0.000000    
94.866348    87.918358    -7.119107    -6.212763    -1.189226    83.559479    3.112446    -13.431700    0.165091    -0.380904    2.616509    -0.192919    -2.314183    21.644569    -6.624368    6.422394    0.339684    -6.120676    12.340367    1.267318    -2.760798    -5.234322    1.599435    3.275007    1.600405    -1.573128    -0.617898    25.798950    0.090758    7.218397    -13.201941    0.060637    4.777426    13.019073    -0.330418    13.526358    -2.428008    -1.024957    1.414459    -18.993475    -1.998087    5.992644    8.094668    -0.422193    1.057141    -3.388114    -4.004795    12.410233    -5.957060    5.047641    19.774555    0.000000    0.000000    0.000000    -0.976259    -0.172279    1.524578    2.644608    -2.216587    -3.641128    6.085710    0.921070    -9.957183    0.000000    0.000000    0.000000    
94.831917    87.921318    -7.136166    -6.224395    -1.189442    83.570259    3.122723    -13.417757    0.158292    -0.404357    2.598161    -0.200070    -2.256164    21.662374    -6.626189    6.360093    0.283605    -6.125572    12.374767    1.275722    -2.761976    -5.249543    1.601795    3.275519    1.594373    -1.570124    -0.613662    25.856825    0.097438    7.218089    -13.174737    0.057613    4.783134    12.993254    -0.350567    13.531205    -2.438928    -0.956791    1.416090    -18.838366    -1.927644    6.030374    8.036999    -0.432306    1.079848    -3.294326    -4.081868    12.777420    -5.954440    5.196796    19.370777    0.000000    0.000000    0.000000    -1.015645    -0.252254    1.665831    2.690187    -2.137542    -3.642729    6.085113    0.882653    -10.104331    0.000000    0.000000    0.000000    
94.809135    87.917137    -7.154084    -6.213688    -1.194537    83.585472    3.132540    -13.406928    0.159146    -0.414781    2.622084    -0.199846    -2.270919    21.628990    -6.642058    6.395532    0.283097    -6.137156    12.381219    1.257248    -2.774795    -5.248794    1.602450    3.280755    1.599990    -1.565697    -0.618163    25.848492    0.070163    7.082468    -13.220685    -0.031674    4.864472    13.032664    -0.236062    13.374647    -2.414750    -1.049932    1.477417    -19.034851    -2.026128    6.004910    8.003266    -0.350377    1.082564    -3.249035    -4.235634    12.848323    -5.951606    5.276513    19.276772    0.000000    0.000000    0.000000    -1.035223    -0.234708    1.698643    2.706716    -2.168744    -3.639746    6.111523    0.878343    -10.151644    0.000000    0.000000    0.000000    
94.772171    87.919197    -7.169297    -6.226501    -1.194154    83.593117    3.128748    -13.388651    0.164123    -0.415217    2.588263    -0.193921    -2.268385    21.678394    -6.652941    6.421551    0.207487    -6.141656    12.393944    1.296961    -2.813010    -5.252938    1.534238    3.280368    1.624231    -1.583522    -0.629503    25.876032    0.104518    7.299649    -13.205137    0.001545    4.848402    12.997942    -0.220722    13.384617    -2.407899    -1.047808    1.483440    -19.034304    -2.022772    5.997804    8.000504    -0.329783    1.065795    -3.244438    -4.356992    13.158030    -5.933780    5.423604    18.975636    0.000000    0.000000    0.000000    -1.020476    -0.216325    1.614796    2.669955    -2.260164    -3.665939    6.125875    0.962252    -10.058663    0.000000    0.000000    0.000000    
94.735191    87.922325    -7.183097    -6.246512    -1.191492    83.615143    3.109655    -13.389845    0.162154    -0.397288    2.585593    -0.194345    -2.252303    21.656069    -6.674075    6.412925    0.199067    -6.163099    12.393167    1.278742    -2.833344    -5.247528    1.492707    3.261966    1.620605    -1.570824    -0.597913    25.906391    0.115866    7.286927    -13.173514    -0.064734    4.868443    12.928779    -0.094537    13.310500    -2.415065    -1.015197    1.505618    -18.914188    -1.979843    5.977897    7.990010    -0.339632    1.050346    -3.244906    -4.408369    12.945708    -5.960584    5.419184    19.197618    0.000000    0.000000    0.000000    -1.030133    -0.246722    1.615676    2.672525    -2.280837    -3.688900    6.145248    0.978800    -10.070440    0.000000    0.000000    0.000000    
94.699364    87.924995    -7.195388    -6.256809    -1.200227    83.631943    3.129132    -13.383594    0.160213    -0.438964    2.602533    -0.197230    -2.199049    21.589214    -6.691041    6.393696    0.226421    -6.180813    12.450223    1.269145    -2.799693    -5.271099    1.925027    3.316959    1.551116    -1.764890    -0.745380    25.950737    -0.049259    7.392503    -13.148442    -0.064263    4.820966    12.911081    -0.079497    13.350164    -2.408917    -1.001437    1.507805    -18.948727    -1.970111    5.991097    7.991997    -0.339848    1.060838    -3.237160    -4.470914    12.991778    -5.975969    5.472251    19.117725    0.000000    0.000000    0.000000    -1.029676    -0.257997    1.649648    2.673412    -2.314841    -3.694097    6.160351    1.010300    -10.112623    0.000000    0.000000    0.000000    
94.658173    87.930428    -7.210757    -6.293643    -1.191920    83.651436    3.133088    -13.384110    0.148751    -0.469006    2.568901    -0.208696    -2.190453    21.619884    -6.694342    6.418446    0.166003    -6.177651    12.461972    1.277836    -2.783311    -5.255019    1.918736    3.304733    1.540772    -1.775747    -0.732741    25.952566    -0.065453    7.369823    -13.131547    -0.065688    4.843420    12.900762    -0.029585    13.329787    -2.412404    -1.018835    1.526728    -19.019747    -1.985716    5.960081    7.971040    -0.390729    1.048757    -3.220128    -4.502941    12.994695    -6.072781    5.445264    19.151615    0.000000    0.000000    0.000000    -1.033102    -0.311196    1.633026    2.659901    -2.331360    -3.728157    6.182417    1.045608    -10.099146    0.000000    0.000000    0.000000    
94.623398    87.933067    -7.221863    -6.305690    -1.191995    83.661781    3.118037    -13.380089    0.158111    -0.447324    2.577256    -0.197926    -2.219036    21.583178    -6.727325    6.469444    0.181126    -6.206381    12.396635    1.215893    -2.747448    -5.169272    2.041530    3.229509    1.506585    -1.809871    -0.714224    25.937626    -0.102600    7.363472    -13.148823    -0.061711    4.792084    12.895843    -0.009729    13.345546    -2.419088    -0.991852    1.520776    -18.976770    -1.958932    5.974615    8.014573    -0.388847    0.991474    -3.306614    -4.539968    12.657500    -6.091391    5.360906    19.459333    0.000000    0.000000    0.000000    -1.036931    -0.325345    1.639773    2.657670    -2.365011    -3.733655    6.177025    1.068738    -10.106795    0.000000    0.000000    0.000000    
